<?xml version="1.0" encoding="utf-8"?>
<!-- Generator: Adobe Illustrator 16.0.3, SVG Export Plug-In . SVG Version: 6.00 Build 0)  -->
<!DOCTYPE svg PUBLIC "-//W3C//DTD SVG 1.1//EN" "http://www.w3.org/Graphics/SVG/1.1/DTD/svg11.dtd">
<svg version="1.1" id="Layer_1" xmlns="http://www.w3.org/2000/svg" xmlns:xlink="http://www.w3.org/1999/xlink" x="0px" y="0px"
	 width="500px" height="500px" viewBox="0 0 500 500" enable-background="new 0 0 500 500" xml:space="preserve">
<path fill="#FFFFFF" d="M489.5,251.1c0,132.3-107.2,239.5-239.5,239.5c-132.3,0-239.5-107.2-239.5-239.5
	C10.5,118.9,117.7,11.6,250,11.6C382.3,11.6,489.5,118.9,489.5,251.1z"/>
<g>
	<g id="XMLID_1_">
		<g>
			<path fill="#364A5E" d="M404.3,352.7v25c0,1.9-1.7,3.6-3.6,3.6H388c-1.9,0-3.5-1.7-3.5-3.6v-26.2c1.3,0.2,2.7,0.3,4,0.5v25.3
				h11.6v-24.7C401.5,352.7,402.9,352.7,404.3,352.7z"/>
			<path fill="#364A5E" d="M404.3,350.8v1.9c-1.4,0-2.8,0-4.1,0v-2.1L404.3,350.8z"/>
			<path fill="#364A5E" d="M400.2,348.7c3.8,0.1,7.7,0,11.7-0.2v-20c-32.1,6.3-56.2-1.2-76.2-15.8c-20.2-14.7-36.4-36.3-53.3-58.4
				c-16.9-22.1-34.6-44.5-57.6-60.7c-12.6-8.9-26.8-15.9-43.4-20l0-4.1c17.6,4.1,32.6,11.4,45.9,20.7c23.6,16.6,41.4,39.5,58.4,61.5
				c17,22.1,32.9,43.5,52.4,57.7c19.5,14.2,42.3,21.2,73.9,14.8h0.3h0.1c1.9,0,3.6,1.7,3.6,3.6V349c0,1.9-1.7,3.3-3.5,3.4
				c0,0,0,0.1,0,0.1c0,0-0.1,0-0.1,0c-2.7,0.1-5.4,0.2-8,0.2v-1.9l-4.1-0.2L400.2,348.7z"/>
			<path fill="#364A5E" d="M388.6,350v1.9c-1.3-0.1-2.7-0.3-4-0.5v-1.7L388.6,350z"/>
			<path fill="#364A5E" d="M384.5,349.8v1.7c-24-3-43.9-11.8-61.1-23.8c-23.5-16.3-42-38.7-59.7-60.3
				c-17.8-21.6-34.7-42.6-54.8-56.8c-17.9-12.7-38.3-20-64.2-17.6l0.5-3.9c11.3-1,21.6-0.2,31.1,2.1c12.9,3,24.3,8.6,34.8,16.1
				c20.7,14.7,37.9,36.1,55.6,57.7c17.7,21.6,36.1,43.5,59,59.4c20.3,14.1,44.1,23.6,74.5,24.3l0,1.8v2.1c-4-0.1-7.9-0.3-11.6-0.7
				V350L384.5,349.8z"/>
			<path fill="#364A5E" d="M181.4,155v0.1l-0.1,14.5c-1.3-0.3-2.7-0.6-4-0.9l0.2-13.6V155c-0.1-9.2-3.8-16.3-9.3-21.4
				c-5.6-5.1-13.1-8.1-20.8-8.9c-7.8-0.8-15.8,0.7-22,4.5c-6.2,3.8-10.8,9.6-12.3,18.2h0.1L88.7,315.1l20.3,4.2l-0.5,4l-22.5-4.7
				l-2-0.4l0.4-1.8l24.8-169.7c1.6-9.6,7-16.8,14.1-21c6.2-3.8,13.7-5.4,21.1-5.2c1.1,0,2.1,0.1,3.2,0.2c8.5,0.9,16.8,4.2,23.2,9.9
				C177.2,136.5,181.4,144.7,181.4,155z"/>
			<path fill="#364A5E" d="M181.4,169.6l0,4.1c-1.3-0.3-2.7-0.6-4.1-0.9l0.1-4.1C178.7,169,180,169.3,181.4,169.6z"/>
			<path fill="#364A5E" d="M181.3,174.3l0,2.1h-4.1l0-2.6c0.3,0,0.7-0.1,1-0.1C179.4,173.7,180.4,173.9,181.3,174.3z"/>
			<path fill="#364A5E" d="M182.5,181.9c0-2.4-1.9-4.2-4.3-4.2s-4.3,1.9-4.3,4.2c0,2.4,1.9,4.3,4.3,4.3S182.5,184.3,182.5,181.9z
				 M177.2,176.4h4.1l0-2.1c3.1,1.2,5.2,4.2,5.2,7.7c0,4.5-3.7,8.3-8.3,8.3c-0.6,0-1.1-0.1-1.7-0.2c-3.8-0.8-6.6-4.1-6.6-8.1
				c0-4.2,3.2-7.7,7.2-8.2L177.2,176.4z"/>
			<path fill="#364A5E" d="M177.2,172.9c1.4,0.3,2.8,0.6,4.1,0.9v0.5c-0.9-0.4-2-0.6-3-0.6c-0.4,0-0.7,0-1,0.1L177.2,172.9z"/>
			<path fill="#364A5E" d="M177.2,172.9c-9.1-1.9-18.9-3-29.6-3l0.2-1.3c0.1-1-0.2-2-0.9-2.7c0.8,0,1.5,0,2.2,0
				c10,0.1,19.4,1.1,28.1,2.9L177.2,172.9z"/>
			<path fill="#364A5E" d="M147,165.8c0.6,0.7,1,1.7,0.9,2.7l-0.2,1.3c-0.9,0-1.8,0-2.7,0l-0.6-1.6l-0.9-2.5
				C144.6,165.8,145.8,165.8,147,165.8z"/>
			<path fill="#364A5E" d="M145.2,189.1l-0.5,3.9c-0.6,0.1-1.2,0.1-1.8,0.2l0.4-3l0.1-0.9C144,189.2,144.6,189.2,145.2,189.1z"/>
			<path fill="#364A5E" d="M147.6,169.8l-2.4,19.3c-0.6,0-1.2,0.1-1.7,0.1l-0.1,0.9L142,190c0-0.2,0-0.4,0-0.6
				c0-0.9-0.2-1.8-0.6-2.6l2.3-18.3l0.7-0.3l0.6,1.6C145.9,169.8,146.8,169.8,147.6,169.8z"/>
			<path fill="#364A5E" d="M143.5,165.8l0.9,2.5l-0.7,0.3l-11.4-1.4l-2.7,21.6l-4.2,33l-4.4,35.1l-4.2,33.1l-3.8,30l-2.4-0.3
				l-1.5-0.3l19.4-153.3c0.2-1.9,2.1-3.3,4-3.1l12.3,1.6c0.9,0.1,1.7,0.6,2.2,1.3C145.8,165.8,144.6,165.8,143.5,165.8z"/>
			<path fill="#364A5E" d="M141.4,186.9c0.4,0.8,0.6,1.6,0.6,2.6c0,0.2,0,0.4,0,0.6c-0.1,1.2-0.6,2.3-1.4,3.2L141.4,186.9z"/>
			<path fill="#364A5E" d="M138,222.5c0,1.5-0.6,3-1.6,4l0.9-6.8C137.7,220.5,138,221.5,138,222.5z"/>
			<path fill="#364A5E" d="M132.8,254.9c0.4,0.8,0.7,1.7,0.7,2.7c0,1.5-0.6,2.8-1.5,3.9L132.8,254.9z"/>
			<path fill="#364A5E" d="M136.2,183.7c2.2,0,4.2,1.3,5.1,3.2l-0.8,6.4c-1.1,1.2-2.6,2-4.3,2c-3.2,0-5.8-2.6-5.8-5.8
				c0-0.2,0-0.4,0-0.6C130.8,186,133.2,183.7,136.2,183.7z M136.2,192.4c1.7,0,3-1.3,3-3c0-1.7-1.3-3-3-3c-1.7,0-3,1.3-3,3
				C133.2,191.1,134.6,192.4,136.2,192.4z"/>
			<path fill="#364A5E" d="M132.2,228.3c-3.2,0-5.8-2.6-5.8-5.8c0-0.2,0-0.4,0-0.6c0.3-2.9,2.8-5.2,5.7-5.2c2.1,0,4,1.2,5,2.9
				l-0.9,6.8C135.3,227.6,133.8,228.3,132.2,228.3z M129.2,222.5c0,1.7,1.3,3,3,3c1.6,0,3-1.3,3-3c0-1.7-1.3-3-3-3
				C130.5,219.5,129.2,220.9,129.2,222.5z"/>
			<path fill="#364A5E" d="M127.8,294l0.7-5.5c0.3,0.7,0.4,1.4,0.4,2.2C129,291.9,128.5,293.1,127.8,294z"/>
			<path fill="#364A5E" d="M124.4,321.2c0.4,0.7,0.6,1.6,0.6,2.4c0,1.4-0.5,2.7-1.3,3.7L124.4,321.2z"/>
			<path fill="#364A5E" d="M127.7,251.8c2.2,0,4.1,1.2,5.1,3.1l-0.8,6.6c-1,1.1-2.6,1.9-4.2,1.9c-3.2,0-5.8-2.6-5.8-5.8
				c0-0.2,0-0.4,0-0.6C122.3,254.1,124.7,251.8,127.7,251.8z M127.7,260.5c1.6,0,3-1.3,3-3c0-1.7-1.3-3-3-3c-1.7,0-3,1.3-3,3
				C124.7,259.2,126,260.5,127.7,260.5z"/>
			<path fill="#364A5E" d="M126.2,290.6c0-1.7-1.3-3-3-3c-1.7,0-3,1.3-3,3c0,1.7,1.3,3,3,3C124.9,293.6,126.2,292.3,126.2,290.6z
				 M128.5,288.5l-0.7,5.5c-1,1.4-2.7,2.4-4.6,2.4c-3.2,0-5.8-2.6-5.8-5.8c0-0.2,0-0.4,0-0.6c0.3-2.9,2.8-5.2,5.7-5.2
				C125.6,284.9,127.7,286.4,128.5,288.5z"/>
			<path fill="#364A5E" d="M122.2,323.7c0-1.6-1.3-3-3-3s-3,1.3-3,3c0,1.7,1.3,3,3,3S122.2,325.3,122.2,323.7z M124.4,321.2
				l-0.8,6.1v0c-1.1,1.3-2.7,2.1-4.4,2.1c-3.2,0-5.8-2.6-5.8-5.8c0-0.2,0-0.4,0-0.6c0.3-2.9,2.8-5.2,5.7-5.2
				C121.5,317.9,123.5,319.3,124.4,321.2z"/>
			<path fill="#364A5E" d="M136.4,226.5c1-1,1.6-2.5,1.6-4c0-1-0.3-2-0.8-2.8l3.3-26.5c0.8-0.9,1.3-2,1.4-3.2l1.4,0.2l-0.4,3
				c0.6-0.1,1.2-0.1,1.8-0.2l-23.4,185.6c-0.2,1.9-2.1,3.3-4,3.1l-12.3-1.6c-1.9-0.2-3.3-2.1-3.1-4l6.7-52.8l1.4,0.3l0.6-4l2.4,0.3
				l-0.4,3l-6.7,53.3l11.4,1.4l6.4-50.3v0c0.8-1,1.3-2.3,1.3-3.7c0-0.9-0.2-1.7-0.6-2.4l3.4-27.2c0.7-0.9,1.1-2.1,1.1-3.4
				c0-0.8-0.1-1.5-0.4-2.2l3.4-27c0.9-1,1.5-2.4,1.5-3.9c0-1-0.2-1.9-0.7-2.7L136.4,226.5z"/>
			<polygon fill="#364A5E" points="110.6,319.7 110,323.7 108.5,323.4 109,319.3 			"/>
		</g>
		<g>
		</g>
	</g>
</g>
</svg>
